<?xml version="1.0" encoding="utf-8"?>
<!-- Generator: Adobe Illustrator 16.0.0, SVG Export Plug-In . SVG Version: 6.00 Build 0)  -->
<!DOCTYPE svg PUBLIC "-//W3C//DTD SVG 1.1//EN" "http://www.w3.org/Graphics/SVG/1.1/DTD/svg11.dtd">
<svg version="1.1" id="Layer_1" xmlns="http://www.w3.org/2000/svg" xmlns:xlink="http://www.w3.org/1999/xlink" x="0px" y="0px"
	 width="1036.5px" height="219px" viewBox="0 195.5 1036.5 219" enable-background="new 0 195.5 1036.5 219" xml:space="preserve">
<g id="XMLID_4_">
	<path id="XMLID_268_" fill="#FFFFFF" d="M207.224,261.806c5.047-0.906,6.6,2.718,7.894,6.341
		c3.753,10.482,7.376,20.965,10.741,31.577c1.682,5.306,2.071,11,6.859,14.882c-2.071,4.659,1.294,8.801,1.553,13.33
		c0.129,3.494,1.035,6.858,1.424,10.224c0.129,1.553,0.129,3.364-0.259,4.917c-0.259,1.165-1.424,2.589-2.33,2.718
		c-1.035,0.13-2.588-0.905-3.106-1.941c-3.235-6.47-6.6-12.94-9.059-19.67c-1.553-4.012-2.588-5.824-7.506-4.918
		c-8.412,1.683-17.083,2.07-25.624,3.494c-1.683,0.259-3.494,2.459-4.53,4.142c-2.588,4.141-4.659,8.8-7.376,12.812
		c-0.906,1.294-3.624,2.588-4.917,2.2c-2.588-0.776-2.459-3.106-1.553-5.694c2.458-6.988,5.047-13.977,6.988-21.095
		c2.847-10.223,4.918-20.706,7.635-31.059c1.165-4.529,2.2-9.059,4.271-13.329C191.824,262.971,199.33,261.806,207.224,261.806z
		 M193.376,307.229c7.765,1.294,14.624,2.329,22.647,3.623c-3.106-5.306-5.435-9.835-8.282-13.976
		c-1.941-2.718-5.047-3.235-7.247-0.388C197.906,299.594,195.965,303.088,193.376,307.229z"/>
	<path id="XMLID_267_" fill="#FFFFFF" d="M436.541,273.453c-5.953,0.776-12.035,1.423-17.988,2.458
		c-5.953,1.036-7.765,4.659-6.341,10.871c1.035,4.659,4.271,6.471,9.835,5.177c5.047-1.165,9.965-2.718,14.883-3.753
		c1.941-0.388,5.436-0.129,5.953,0.906c1.164,2.588,1.812,5.953,1.164,8.8c-0.259,1.424-3.494,3.106-5.436,3.365
		c-5.306,0.647-10.87,0.647-16.176,0.906c-6.729,0.389-8.93,3.235-7.247,9.835c1.294,4.788,2.847,9.576,4.399,14.235
		c1.812,5.436,5.565,7.636,11.518,7.117c5.953-0.518,11.906-0.905,17.729-1.682c7.506-0.906,10.354,1.553,9.706,9.317
		c-0.518,6.341-2.588,8.541-8.67,8.153c-5.694-0.389-11.389-1.295-16.953-2.718c-9.706-2.33-19.153-5.306-28.859-7.895
		c-3.882-1.035-4.399-3.494-3.882-6.988c0.776-4.788,1.294-9.576,2.329-14.235c0.906-4.529,1.035-8.411-2.977-12.035
		c-2.588-2.458,0.13-4.788,1.812-6.471c5.953-5.953,5.824-13.329-0.518-18.635c-3.882-3.105-3.494-5.564,0.906-7.635
		c9.576-4.659,19.153-9.576,28.858-14.235c7.247-3.494,14.494-0.647,21.612,0.777c0.905,0.129,2.07,2.976,1.812,4.4
		c-0.776,6.471-6.6,11-13.07,10.612c-1.553-0.129-2.977-0.259-4.529-0.388C436.541,273.712,436.541,273.583,436.541,273.453z"/>
	<path id="XMLID_264_" fill="#FFFFFF" d="M636.871,261.547c2.847-0.518,4.529,2.33,5.693,5.565
		c2.848,7.765,5.565,15.529,8.283,23.423c2.07,6.083,3.753,12.294,5.823,18.377c0.388,1.164,1.294,2.459,2.329,3.105
		c2.329,1.424,3.753,2.718,1.553,5.306c-0.259,0.389-0.388,1.165-0.259,1.683c1.035,5.953,2.071,11.906,3.235,17.858
		c0.13,0.906,0.776,1.812,0.647,2.589c-0.647,2.2-1.683,4.271-2.459,6.341c-1.424-1.294-3.364-2.329-4.142-3.882
		c-3.235-6.212-6.341-12.554-9.188-19.023c-1.165-2.718-1.683-4.4-5.694-3.883c-5.177,0.776-10.482-0.129-15.788-0.389
		c-8.153-0.388-13.977,2.33-17.083,10.612c-1.423,4.012-4.271,7.635-6.858,11.129c-0.776,1.036-3.235,1.941-4.012,1.424
		c-1.165-0.776-2.2-2.977-1.941-4.141c1.424-5.565,3.624-10.871,5.177-16.436c3.235-11.776,6.341-23.553,9.317-35.33
		c1.424-5.565,1.941-11.259,5.953-15.917C622.377,264.523,628.459,262.194,636.871,261.547z M644.247,310.724
		c-3.883-8.023-6.858-15.012-10.482-21.741c-1.812-3.365-4.918-2.718-6.212,0.906c-2.07,5.694-3.882,11.388-5.953,17.47
		C628.977,308.395,635.835,309.43,644.247,310.724z"/>
	<path id="XMLID_263_" fill="#FFFFFF" d="M333.4,257.406c1.035,2.847,2.071,4.918,2.33,6.988c1.035,10.224,1.812,20.577,2.458,30.8
		c0.129,2.458,0.906,3.235,3.494,3.494c6.6,0.388,13.33,0.776,19.8,2.2c4.141,0.906,5.177-0.518,5.306-4.012
		c0.259-8.282,0.259-16.694,0.906-24.977c0.259-4.529,1.423-8.929,2.2-13.458c0.776,0,1.682,0,2.458,0
		c0.519,2.329,1.165,4.529,1.424,6.858c1.035,12.036,1.812,24.071,2.718,35.718c3.235,1.294,6.212,2.459,9.188,3.624
		c0,0.518,0,1.165,0,1.682c-2.589,0.906-5.047,1.683-8.282,2.718c0.388,4.659,1.164,9.706,1.294,14.753
		c0.129,6.083,0,12.165-0.389,18.118c-0.259,4.012-2.718,6.341-6.729,6.471c-4.399,0.129-6.6-1.812-6.729-6.729
		c-0.259-9.188,0-18.377,0-27.436c0-1.165,0-2.329,0-4.142c-7.894,1.165-15.658,2.33-22.905,3.494c0,6.471,0,13.071,0,19.671
		c0,2.459,0,4.918-0.259,7.247c-0.776,5.564-3.494,7.895-8.67,7.765c-5.694-0.13-7.635-1.941-8.282-8.023
		c-1.165-13.459,0.129-26.788,1.941-40.118c1.424-9.706,1.424-19.67,2.071-29.506C328.871,266.465,328.741,261.936,333.4,257.406z"
		/>
	<path id="XMLID_262_" fill="#FFFFFF" d="M124.659,277.982c-0.776-4.271,3.753-10.094,8.283-10.353
		c5.823-0.388,12.035-0.776,17.6,0.647c3.235,0.776,6.471,4.788,8.024,8.023c4.659,9.706,8.023,19.93,6.6,31.059
		c-1.423,11-6.082,20.318-14.105,27.694c-5.694,5.177-13.2,5.694-20.577,5.564c-8.023,0-13.2-4.012-17.859-10.481
		c-11.518-16.436-8.153-38.694,1.165-52.8c0.129-0.259,0.777-0.259,2.459-0.906c-0.518,3.106-0.906,5.565-1.423,8.024
		c-2.33,9.964-2.718,19.8,3.365,28.858c5.176,7.895,15.529,10.224,23.553,5.306c8.153-5.047,12.553-14.494,10.871-23.941
		c-0.776-4.141-1.423-8.412-2.977-12.294c-3.494-8.412-12.553-11.129-20.317-6.471C127.765,276.559,126.212,277.206,124.659,277.982
		z"/>
	<path id="XMLID_261_" fill="#FFFFFF" d="M91.788,349.288c-21.871-1.424-38.564-10.611-49.306-28.858
		c-3.882-6.342-5.177-13.459-3.365-21.741c2.977-13.588,10.094-24.459,18.635-34.553c2.718-3.235,6.341-4.917,11.129-4.788
		c5.953,0.129,11.906-1.553,17.859-1.941c2.588-0.129,6.988,0.129,7.635,1.683c1.553,3.106-1.941,4.788-4.529,6.082
		c-4.271,2.33-8.542,4.53-12.553,7.118c-6.988,4.529-13.847,8.93-18.247,16.565c-5.176,9.059-7.894,18.247-5.306,28.6
		c0.259,1.035,0.388,2.07,1.035,2.977c6.6,10.353,14.882,18.247,27.824,19.411c4.659,0.389,9.317,1.036,13.847,1.812
		c1.294,0.259,3.624,1.94,3.494,2.458c-0.389,1.554-1.553,3.494-2.977,4.142C95.412,349.159,93.083,349.029,91.788,349.288z"/>
	<path id="XMLID_260_" fill="#FFFFFF" d="M289.917,255.335c3.624,0.647,7.247,1.035,10.612,1.941
		c1.165,0.259,2.977,2.071,2.718,2.718c-0.388,1.423-1.553,2.847-2.847,3.624c-1.941,1.035-4.271,1.423-6.471,2.071
		c-20.447,5.953-30.412,19.8-32.094,39.858c-1.424,15.659,14.882,33.389,28.729,34.294c4.659,0.259,9.318,0.906,13.847,1.812
		c1.424,0.259,2.718,1.682,4.141,2.588c-1.035,1.424-2.07,4.142-3.235,4.271c-4.659,0.518-9.447,0.906-13.977,0
		c-17.212-3.364-30.8-12.553-39.988-27.694c-4.271-7.117-4.271-15.271-3.235-23.035c1.423-10.094,5.176-19.67,12.165-27.306
		c5.047-5.694,10.871-11,18.635-13.071C282.282,256.241,286.165,255.982,289.917,255.335z"/>
	<path id="XMLID_259_" fill="#FFFFFF" d="M516.13,346.183c-1.941-0.518-5.048-1.812-8.283-2.459
		c-8.411-1.553-16.952-2.847-25.364-4.271c-3.235-0.647-6.471-1.424-9.706-2.459c-0.905-0.259-2.2-1.553-2.2-2.329
		s1.165-1.941,2.071-2.459c1.94-1.165,5.176-1.683,5.952-3.365c1.424-3.105,2.071-6.858,2.2-10.482
		c0.389-9.964,0.259-19.8,0.518-29.764c0.13-6.083,0.13-12.165,0.389-18.247c0.129-3.494,0.776-6.859,1.553-10.224
		c0.259-1.035,1.683-1.812,2.588-2.588c0.906,0.906,2.33,1.683,2.589,2.847c1.035,5.694,1.812,11.388,2.459,17.083
		c1.423,12.941,2.588,25.882,4.012,38.823c0.259,2.2,0.905,4.4,1.553,6.601c1.941,5.693,7.506,8.152,13.2,5.952
		c1.94-0.776,4.012-1.682,6.082-1.682c3.364,0,5.694,1.553,5.694,5.564c0,2.977,0.518,5.953,1.035,8.93
		C523.117,344.629,521.306,346.441,516.13,346.183z"/>
	<path id="XMLID_258_" fill="#FFFFFF" d="M536.188,336.477c0.776-1.424,1.164-3.105,2.2-4.142c5.047-4.788,5.823-11.259,6.082-17.6
		c0.389-15.659,0.129-31.447,0.129-47.106c0-2.588,0.518-5.176,1.295-7.506c0.259-1.035,1.812-2.33,2.717-2.33
		c0.906,0.129,2.459,1.553,2.589,2.588c0.905,4.788,1.553,9.577,1.941,14.365c1.423,14.882,2.718,29.765,4.141,44.647
		c0.776,7.376,3.106,9.188,12.165,9.705c2.977,0.13,6.082,0.13,8.8,1.036c4.4,1.294,8.412,9.705,6.729,13.847
		c-0.518,1.165-2.847,2.459-4.271,2.459c-15.012-0.259-29.118-4.659-43.353-8.671C537.224,337.512,536.965,337.123,536.188,336.477z
		"/>
</g>
<g>
	<path fill="#FFFFFF" d="M781.06,345.179H726.1c-0.08-3.438,0.64-6.559,2.16-9.36c1.519-2.799,3.52-5.418,6-7.859
		c2.479-2.439,5.26-4.759,8.34-6.96c3.079-2.199,6.139-4.38,9.181-6.54c3.12-2.16,6.159-4.359,9.12-6.6
		c2.958-2.239,5.599-4.58,7.92-7.021c2.319-2.439,4.179-5.04,5.58-7.8c1.398-2.76,2.1-5.739,2.1-8.94c0-3.199-0.581-6.019-1.74-8.46
		c-1.16-2.439-2.741-4.479-4.74-6.12c-2-1.639-4.38-2.88-7.14-3.72c-2.76-0.84-5.78-1.26-9.06-1.26c-4.241,0-7.881,0.642-10.92,1.92
		c-3.042,1.281-5.521,3.06-7.44,5.34c-1.92,2.28-3.32,5-4.2,8.16c-0.881,3.162-1.319,6.621-1.319,10.38h-2.4
		c0.079-8.959,2.299-15.9,6.66-20.82c4.359-4.92,10.899-7.38,19.62-7.38c3.52,0,6.799,0.461,9.84,1.38
		c3.039,0.921,5.68,2.301,7.92,4.14c2.238,1.841,4.02,4.121,5.34,6.84c1.32,2.721,1.98,5.921,1.98,9.6
		c0,4.481-1.2,8.562-3.601,12.24c-2.399,3.681-5.421,7.121-9.06,10.319c-3.642,3.201-7.581,6.222-11.82,9.061
		c-4.241,2.841-8.22,5.682-11.939,8.52c-3.721,2.841-6.9,5.761-9.54,8.761c-2.641,3-4.122,6.261-4.44,9.779h52.56V345.179z"/>
	<path fill="#FFFFFF" d="M848.92,319.619c-1.001,5.04-2.7,9.561-5.101,13.56c-2.399,4.001-5.561,7.221-9.479,9.66
		c-3.921,2.439-8.841,3.66-14.76,3.66c-5.841,0-10.74-1.221-14.7-3.66s-7.141-5.659-9.54-9.66c-2.4-3.999-4.101-8.52-5.101-13.56
		c-1.001-5.04-1.5-10.119-1.5-15.24c0-5.119,0.499-10.2,1.5-15.24c1-5.04,2.7-9.559,5.101-13.56c2.399-4,5.58-7.239,9.54-9.72
		c3.96-2.479,8.859-3.72,14.7-3.72c5.919,0,10.839,1.241,14.76,3.72c3.919,2.48,7.08,5.72,9.479,9.72
		c2.4,4.001,4.1,8.52,5.101,13.56c0.999,5.04,1.5,10.121,1.5,15.24C850.42,309.5,849.919,314.579,848.92,319.619z M846.7,290.458
		c-0.882-4.719-2.4-9-4.561-12.84s-5.061-6.979-8.7-9.42c-3.641-2.439-8.261-3.66-13.859-3.66c-5.601,0-10.221,1.221-13.86,3.66
		c-3.642,2.441-6.54,5.58-8.7,9.42s-3.681,8.121-4.56,12.84c-0.882,4.722-1.32,9.36-1.32,13.92c0,4.56,0.438,9.2,1.32,13.92
		c0.879,4.721,2.399,9,4.56,12.84s5.059,6.98,8.7,9.42c3.64,2.441,8.26,3.66,13.86,3.66c5.599,0,10.219-1.219,13.859-3.66
		c3.64-2.439,6.54-5.58,8.7-9.42s3.679-8.119,4.561-12.84c0.879-4.72,1.319-9.36,1.319-13.92
		C848.02,299.819,847.579,295.18,846.7,290.458z"/>
	<path fill="#FFFFFF" d="M888.459,266.699c-2.48,3.44-5.699,6.42-9.659,8.94s-7.98,4.341-12.061,5.46v-2.4
		c2.479-0.799,4.681-1.68,6.601-2.64s3.72-2.04,5.399-3.24c1.681-1.2,3.3-2.56,4.86-4.08c1.56-1.519,3.18-3.24,4.859-5.16h2.641
		v81.6h-2.4v-78.48H888.459z"/>
	<path fill="#FFFFFF" d="M974.079,273.719c-1.721-2.359-3.66-4.219-5.82-5.58c-2.159-1.359-4.4-2.299-6.72-2.82
		c-2.321-0.52-4.521-0.78-6.6-0.78c-6.081,0-11.001,1.521-14.761,4.56c-3.761,3.042-6.659,6.881-8.699,11.52
		c-2.04,4.641-3.381,9.641-4.021,15c-0.641,5.361-0.921,10.401-0.84,15.12h0.24c0.559-2.879,1.659-5.559,3.3-8.04
		c1.639-2.479,3.64-4.659,6-6.54c2.358-1.879,5.04-3.339,8.04-4.38c3-1.039,6.1-1.56,9.3-1.56c3.52,0,6.979,0.681,10.38,2.04
		c3.399,1.361,6.42,3.281,9.061,5.76c2.64,2.481,4.759,5.441,6.359,8.88c1.6,3.44,2.4,7.281,2.4,11.521
		c0,4.08-0.762,7.841-2.28,11.279c-1.521,3.441-3.581,6.401-6.18,8.881c-2.601,2.48-5.601,4.421-9,5.819
		c-3.401,1.399-6.98,2.101-10.74,2.101c-2.801,0-5.421-0.36-7.859-1.08c-2.441-0.721-4.662-1.681-6.66-2.88
		c-2.001-1.2-3.78-2.56-5.34-4.08c-1.561-1.519-2.861-3.079-3.9-4.681c-2.321-3.6-3.801-7.698-4.44-12.3
		c-0.641-4.6-0.96-9.54-0.96-14.82c0-5.04,0.48-10.2,1.44-15.479s2.619-10.08,4.979-14.4c2.359-4.32,5.5-7.839,9.42-10.56
		c3.919-2.719,8.881-4.08,14.881-4.08c3.519,0,6.738,0.54,9.659,1.62c2.92,1.08,5.46,2.541,7.62,4.38
		c2.16,1.841,3.919,4.02,5.28,6.54c1.359,2.52,2.239,5.22,2.64,8.1h-2.399C977.059,279.1,975.799,276.079,974.079,273.719z
		 M977.259,308.339c-1.361-3.12-3.2-5.839-5.52-8.16c-2.321-2.319-5.04-4.159-8.16-5.52c-3.12-1.359-6.479-2.04-10.08-2.04
		c-3.6,0-6.96,0.681-10.08,2.04c-3.12,1.361-5.841,3.201-8.16,5.52c-2.321,2.321-4.16,5.04-5.52,8.16
		c-1.361,3.12-2.04,6.479-2.04,10.08c0,3.6,0.679,6.96,2.04,10.08c1.359,3.12,3.198,5.84,5.52,8.16c2.319,2.32,5.04,4.16,8.16,5.52
		c3.12,1.361,6.48,2.04,10.08,2.04c3.601,0,6.96-0.679,10.08-2.04c3.12-1.359,5.839-3.199,8.16-5.52
		c2.319-2.32,4.158-5.04,5.52-8.16c1.359-3.12,2.04-6.48,2.04-10.08C979.299,314.818,978.618,311.459,977.259,308.339z"/>
</g>
</svg>
